<svg width="16" height="16" viewBox="0 0 16 16" fill="none" xmlns="http://www.w3.org/2000/svg">
<circle cx="8" cy="8" r="8" fill="#FF7A00"/>
<path d="M5.66401 5.33022C5.5977 5.33024 5.5329 5.35003 5.4779 5.38707C5.42289 5.42411 5.38018 5.47671 5.35523 5.53815C5.33028 5.59958 5.32422 5.66707 5.33782 5.73197C5.35142 5.79687 5.38407 5.85624 5.43159 5.90249L7.52924 8.00014L5.43159 10.0978C5.3996 10.1285 5.37406 10.1653 5.35646 10.206C5.33887 10.2467 5.32957 10.2905 5.32912 10.3349C5.32867 10.3792 5.33707 10.4232 5.35383 10.4643C5.3706 10.5053 5.39538 10.5426 5.42674 10.574C5.4581 10.6054 5.4954 10.6301 5.53646 10.6469C5.57752 10.6637 5.62151 10.6721 5.66586 10.6716C5.71021 10.6712 5.75402 10.6619 5.79473 10.6443C5.83544 10.6267 5.87223 10.6011 5.90294 10.5692L8.0006 8.4715L10.0983 10.5692C10.129 10.6011 10.1658 10.6267 10.2065 10.6443C10.2472 10.6619 10.291 10.6712 10.3353 10.6716C10.3797 10.6721 10.4237 10.6637 10.4647 10.6469C10.5058 10.6301 10.5431 10.6054 10.5745 10.574C10.6058 10.5426 10.6306 10.5053 10.6474 10.4643C10.6641 10.4232 10.6725 10.3792 10.6721 10.3349C10.6716 10.2905 10.6623 10.2467 10.6447 10.206C10.6271 10.1653 10.6016 10.1285 10.5696 10.0978L8.47195 8.00014L10.5696 5.90249C10.6178 5.85567 10.6507 5.79539 10.664 5.72955C10.6773 5.66371 10.6704 5.59538 10.6443 5.53352C10.6181 5.47166 10.5738 5.41915 10.5173 5.38287C10.4607 5.34659 10.3946 5.32824 10.3274 5.33022C10.2408 5.3328 10.1586 5.369 10.0983 5.43113L8.0006 7.52879L5.90294 5.43113C5.87188 5.3992 5.83473 5.37382 5.79369 5.35649C5.75265 5.33916 5.70856 5.33023 5.66401 5.33022Z" fill="white"/>
</svg>
