<svg width="18" height="18" viewBox="0 0 18 18" fill="none" xmlns="http://www.w3.org/2000/svg">
<circle cx="9" cy="9" r="9" fill="#CFD4D9"/>
<path d="M5.49553 4.99436C5.39606 4.99438 5.29886 5.02407 5.21635 5.07963C5.13385 5.13519 5.06979 5.21409 5.03236 5.30624C4.99493 5.3984 4.98584 5.49962 5.00624 5.59698C5.02664 5.69433 5.07561 5.78338 5.14689 5.85276L8.29338 8.99924L5.14689 12.1457C5.09891 12.1918 5.06059 12.247 5.0342 12.308C5.00781 12.3691 4.99387 12.4348 4.99319 12.5013C4.99251 12.5679 5.00512 12.6339 5.03026 12.6954C5.05541 12.757 5.09259 12.813 5.13963 12.86C5.18666 12.9071 5.24262 12.9442 5.30421 12.9694C5.36579 12.9945 5.43178 13.0071 5.4983 13.0065C5.56482 13.0058 5.63054 12.9918 5.6916 12.9654C5.75267 12.9391 5.80785 12.9007 5.85392 12.8528L9.00041 9.70627L12.1469 12.8528C12.193 12.9007 12.2481 12.9391 12.3092 12.9654C12.3703 12.9918 12.436 13.0058 12.5025 13.0065C12.569 13.0071 12.635 12.9945 12.6966 12.9694C12.7582 12.9442 12.8142 12.9071 12.8612 12.86C12.9082 12.813 12.9454 12.757 12.9706 12.6954C12.9957 12.6339 13.0083 12.5679 13.0076 12.5013C13.007 12.4348 12.993 12.3691 12.9666 12.308C12.9402 12.247 12.9019 12.1918 12.8539 12.1457L9.70744 8.99924L12.8539 5.85276C12.9262 5.78253 12.9755 5.6921 12.9955 5.59334C13.0155 5.49458 13.0052 5.39209 12.9659 5.2993C12.9266 5.20651 12.8602 5.12774 12.7754 5.07333C12.6906 5.01891 12.5914 4.99139 12.4906 4.99436C12.3607 4.99823 12.2375 5.05252 12.1469 5.14573L9.00041 8.29221L5.85392 5.14573C5.80733 5.09783 5.75161 5.05976 5.69005 5.03376C5.62849 5.00776 5.56235 4.99436 5.49553 4.99436Z" fill="white"/>
</svg>
